<?xml version="1.0" encoding="UTF-8"?> <svg xmlns="http://www.w3.org/2000/svg" width="80" height="46" viewBox="0 0 80 46" fill="none"><g clip-path="url(#clip0_299_71)"><path d="M0 45.5357V11.3448L11.3732 0H80V32.629L67.061 45.5357H0Z" fill="#FFCB05"></path><path d="M45.8082 11.2334C45.8906 11.2334 45.9696 11.2011 46.0285 11.1436L48.6038 8.61976L51.1759 6.05488C51.2347 5.99616 51.3146 5.96316 51.398 5.96316H54.1542C54.3277 5.96316 54.4683 6.10318 54.4683 6.27592V10.9206C54.4683 11.0933 54.6088 11.2334 54.7823 11.2334H65.4527C65.6261 11.2334 65.7667 11.3734 65.7667 11.5461V19.3405C65.7667 19.5133 65.6261 19.6533 65.4527 19.6533H52.6356C52.4621 19.6533 52.3216 19.7934 52.3216 19.9661V29.8505C52.3216 30.0233 52.4621 30.1633 52.6356 30.1633H65.3957C65.5692 30.1633 65.7096 30.3034 65.7096 30.476V38.2705C65.7096 38.4432 65.5692 38.5832 65.3957 38.5832H52.3291C52.325 38.5832 52.3216 38.5866 52.3216 38.5907C52.3216 38.5949 52.3183 38.5982 52.314 38.5982H50.3202C50.2372 38.5982 50.1576 38.5654 50.0988 38.5073L47.048 35.4848L43.9004 32.3493C43.8416 32.2907 43.8085 32.2112 43.8085 32.1282V19.9661C43.8085 19.7934 43.6679 19.6533 43.4945 19.6533H41.7874C41.6139 19.6533 41.4733 19.5133 41.4733 19.3406V11.5461C41.4733 11.3734 41.6139 11.2334 41.7874 11.2334L45.8082 11.2334Z" fill="#262626"></path><path d="M22.3724 38.5982C22.5459 38.5982 22.6865 38.4581 22.6865 38.2855V19.9661C22.6865 19.7934 22.8271 19.6533 23.0006 19.6533H38.2345C38.4078 19.6533 38.5484 19.5133 38.5484 19.3405V11.5461C38.5484 11.3734 38.4078 11.2334 38.2345 11.2334L27.9809 11.2334C27.9253 11.2334 27.8708 11.2481 27.8228 11.2759L23.2744 13.9164L20.5835 15.4419C20.5818 15.4428 20.5799 15.4434 20.5778 15.4434C20.5749 15.4434 20.5721 15.4422 20.5699 15.4401L18.4346 13.3636L16.4391 11.3277C16.3801 11.2674 16.299 11.2334 16.2145 11.2334H14.5475C14.3741 11.2334 14.2335 11.3734 14.2335 11.5461V38.2855C14.2335 38.4581 14.3741 38.5982 14.5475 38.5982H22.3724Z" fill="#262626"></path></g><defs><clipPath id="clip0_299_71"><rect width="80" height="45.5357" fill="white"></rect></clipPath></defs></svg> 